# AST/ASF file generated using VICON BodyLanguage
# -----------------------------------------------
:version 1.10
:name VICON
:units
  mass 1.0
  length 0.45
  angle deg
:documentation
   .ast/.asf automatically generated from VICON data using
   VICON BodyBuilder and BodyLanguage model FoxedUp or BRILLIANT.MOD
:root
   order TX TY TZ RX RY RZ
   axis XYZ
   position 0 0 0  
   orientation 0 0 0 
:bonedata
  begin
     id 1 
     name lhipjoint
     direction 0.624716 -0.669793 0.401383 
     length 2.38238 
     axis 0 0 0  XYZ
  end
  begin
     id 2 
     name lfemur
     direction 0.34202 -0.939693 0  
     length 6.4574  
     axis 0 0 20  XYZ
    dof rx ry rz
    limits (-160.0 20.0)
           (-70.0 70.0)
           (-60.0 70.0)
  end
  begin
     id 3 
     name ltibia
     direction 0.34202 -0.939693 0   
     length 7.68739   
     axis 0 0 20   XYZ
    dof rx
    limits (-10.0 170.0)
  end
  begin
     id 4 
     name lfoot
     direction 0.0681309 -0.187188 0.979959   
     length 2.46615   
     axis -90 7.62852e-016 20   XYZ
    dof rx rz
    limits (-45.0 90.0)
           (-70.0 20.0)
  end
  begin
     id 5 
     name ltoes
     direction 1.53566e-011 -4.21819e-011 1   
     length 1.2376   
     axis -90 7.62852e-016 20   XYZ
    dof rx
    limits (-90.0 20.0)
  end
  begin
     id 6 
     name rhipjoint
     direction -0.644473 -0.655875 0.393043   
     length 2.43293  
     axis 0 0 0  XYZ 
  end
  begin
     id 7 
     name rfemur
     direction -0.34202 -0.939693 0   
     length 6.7025   
     axis 0 0 -20   XYZ
    dof rx ry rz
    limits (-160.0 20.0)
           (-70.0 70.0)
           (-70.0 60.0)
  end
  begin
     id 8 
     name rtibia
     direction -0.34202 -0.939693 0   
     length 7.80547   
     axis 0 0 -20   XYZ
    dof rx
    limits (-10.0 170.0)
 end
 begin
     id 9 
     name rfoot
     direction -0.0756734 -0.207911 0.975216   
     length 2.40315  
     axis -90 -7.62852e-016 -20   XYZ
    dof rx rz
    limits (-45.0 90.0)
           (-20.0 70.0)
  end
  begin
     id 10 
     name rtoes
     direction -1.5353e-011 -4.21879e-011 1   
     length 1.20477   
     axis -90 -7.62852e-016 -20   XYZ
    dof rx
    limits (-90.0 20.0)
  end
  begin
     id 11 
     name lowerback
     direction 0.0160353 0.987463 -0.157037   
     length 2.18572   
     axis 0 0 0   XYZ
    dof rx ry rz
    limits (-20.0 45.0)
           (-30.0 30.0)
           (-30.0 30.0)
  end
  begin
     id 12 
     name upperback
     direction -0.00499661 0.999756 0.0215076   
     length 2.18016   
     axis 0 0 0   XYZ
    dof rx ry rz
    limits (-20.0 45.0)
           (-30.0 30.0)
           (-30.0 30.0)
  end
  begin
     id 13 
     name thorax
     direction -0.00921346 0.995333 0.0960619   
     length 2.24923   
     axis 0 0 0   XYZ
    dof rx ry rz
    limits (-20.0 45.0)
           (-30.0 30.0)
           (-30.0 30.0)
  end
  begin
     id 14 
     name lowerneck
     direction 0.0274184 0.991181 0.12965   
     length 1.70911   
     axis 0 0 0   XYZ
    dof rx ry rz
    limits (-20.0 45.0)
           (-30.0 30.0)
           (-30.0 30.0)
  end
  begin
     id 15 
     name upperneck
     direction 0.0015627 0.999959 -0.00893559   
     length 1.69312   
     axis 0 0 0   XYZ
    dof rx ry rz
    limits (-20.0 45.0)
           (-30.0 30.0)
           (-30.0 30.0)
  end
  begin
     id 16
     name head
     direction -0.00230242 0.999856 -0.0168327  
     length 1.80241  
     axis 0 0 0   XYZ
    dof rx ry rz
    limits (-20.0 45.0)
           (-30.0 30.0)
           (-30.0 30.0)
  end
  begin
     id 17 
     name lclavicle
     direction 0.955523 0.290741 -0.0494489  
     length 3.84275  
     axis 0 0 0   XYZ
    dof ry rz
    limits (-20.0 10.0)
           (0.0 20.0)
  end
  begin
     id 18 
     name lhumerus
     direction 1 -4.48967e-011 -3.18382e-028   
     length 5.17714   
     axis 180 -30 -90   XYZ
    dof rx ry rz
    limits (-60.0 90.0)
           (-90.0 90.0)
           (-90.0 90.0)
  end
  begin
     id 19
     name lradius
     direction 1 -4.48968e-011 -2.22911e-027   
     length 3.43679   
     axis 180 -30 -90   XYZ
    dof rx
    limits (-10.0 170.0)
  end
  begin
     id 20
     name lwrist
     direction 1 -4.48951e-011 -6.32245e-027   
     length 1.7184   
     axis 3.57107e-015 90 90   XYZ
    dof ry
    limits (-180.0 0.0)
 end
  begin
     id 21 
     name lhand
     direction 1 -4.48924e-011 -1.26431e-026   
     length 0.573117   
     axis 8.06912e-015 90 90   XYZ
    dof rx rz
    limits (-90.0 90.0)
           (-45.0 45.0)
  end
  begin
     id 22 
     name lfingers
     direction 1 -4.49001e-011 -2.52965e-026   
     length 0.462062   
     axis 1.61381e-014 90 90   XYZ
    dof rx
    limits (0.0 90.0)
  end
  begin
     id 23
     name lthumb
     direction 0.707107 -6.35008e-011 0.707107   
     length 0.663431   
     axis -90 45 -1.62303e-014   XYZ
    dof rx rz
    limits (-45.0 45.0)
           (-45.0 45.0)
  end
  begin
     id 24 
     name rclavicle
     direction -0.963917 0.256881 -0.0698287   
     length 3.73057  
     axis 0 0 0   XYZ 
    dof ry rz
    limits (-10.0 20.0)
           (-20.0 0.0)
  end
  begin
     id 25 
     name rhumerus
     direction -1 -4.48962e-011 -2.73982e-027  
     length 5.23908   
     axis 180 30 90   XYZ
    dof rx ry rz
    limits (-90.0 60.0)
           (-90.0 90.0)
           (-90.0 90.0)
  end
  begin
     id 26 
     name rradius
     direction -1 -4.48968e-011 -4.33218e-027   
     length 3.46485   
     axis 180 30 90   XYZ
    dof rx
    limits (-10.0 170.0)
  end
  begin
     id 27 
     name rwrist
     direction -1 -4.48989e-011 -6.32372e-027   
     length 1.73243   
     axis 3.57107e-015 -90 -90   XYZ
    dof ry
    limits (-180.0 0.0)
  end
  begin
     id 28
     name rhand
     direction -1 -4.48948e-011 -1.26448e-026   
     length 0.608752   
     axis 8.06912e-015 -90 -90   XYZ
    dof rx rz
    limits (-90.0 90.0)
           (-45.0 45.0)
  end
  begin
     id 29
     name rfingers
     direction -1 -4.48962e-011 -2.52913e-026   
     length 0.490792   
     axis 1.61381e-014 -90 -90   XYZ
    dof rx
    limits (0.0 90.0)
  end
  begin
     id 30
     name rthumb
     direction -0.707107 -6.34878e-011 0.707107   
     length 0.704682   
     axis -90 -45 1.62303e-014   XYZ
    dof rx rz
    limits (-45.0 45.0)
           (-45.0 45.0)
  end
:hierarchy
  begin
    root lhipjoint rhipjoint lowerback
    lhipjoint lfemur
    lfemur ltibia
    ltibia lfoot
    lfoot ltoes
    rhipjoint rfemur
    rfemur rtibia
    rtibia rfoot
    rfoot rtoes
    lowerback upperback
    upperback thorax
    thorax lowerneck lclavicle rclavicle
    lowerneck upperneck
    upperneck head
    lclavicle lhumerus
    lhumerus lradius
    lradius lwrist
    lwrist lhand lthumb
    lhand lfingers
    rclavicle rhumerus
    rhumerus rradius
    rradius rwrist
    rwrist rhand rthumb
    rhand rfingers
  end

#!OML:ASF G:\JayActor3\Patient Classification 1\Patient 1\Session 6\male.ASF
:FULLY-SPECIFIED
:DEGREES
233
root 4.46079 16.3745 -4.5229 37.8687 -88.1287 -41.4086
lowerback -1.83273 0.184596 -1.29342
upperback 3.25777 0.308216 -1.16482
thorax 4.38428 0.115986 -0.460634
lowerneck -11.0549 -0.633546 0.973075
upperneck 31.2715 -1.88435 -0.870834
head 12.0775 -1.20372 -0.828134
rclavicle 9.59136e-015 3.18055e-015
rhumerus -26.5571 -11.2047 -86.9333
rradius 22.8983
rwrist 9.60105
rhand -18.0071 -4.54739
rfingers 7.12502
rthumb 8.26347 -34.3658
lclavicle 9.59136e-015 3.18055e-015
lhumerus -27.767 -3.11378 87.7688
lradius 24.7291
lwrist 17.385
lhand -18.5351 12.2056
lfingers 7.12502
lthumb 7.75392 42.0434
rfemur -14.5483 6.94144 17.8225
rtibia 39.1946
rfoot -21.0832 -11.4443
rtoes 2.37065
lfemur 7.21933 8.4884 -18.8496
ltibia 16.0946
lfoot -19.3795 9.76365
ltoes -0.893606
234
root 4.43833 16.3761 -4.55243 32.0946 -87.9156 -35.6841
lowerback -1.83087 0.186668 -1.25946
upperback 3.25271 0.309884 -1.1677
thorax 4.37811 0.11816 -0.48251
lowerneck -11.0487 -0.631928 1.00731
upperneck 31.1218 -1.87095 -0.875508
head 12.0155 -1.18967 -0.830673
rclavicle -8.52289e-015 -1.11319e-014
rhumerus -26.5864 -11.1703 -86.9924
rradius 22.925
rwrist 9.5649
rhand -18.1215 -4.5408
rfingers 7.12502
rthumb 8.15305 -34.3635
lclavicle -8.52289e-015 -1.11319e-014
lhumerus -27.9103 -2.99002 87.7399
lradius 24.7842
lwrist 17.3991
lhand -18.4884 12.2327
lfingers 7.12502
lthumb 7.79893 42.0689
rfemur -14.3279 6.78318 17.9227
rtibia 39.1606
rfoot -21.24 -11.5464
rtoes 2.44867
lfemur 7.36441 8.28292 -18.7506
ltibia 16.0224
lfoot -19.2893 9.68614
ltoes -1.11145
235
root 4.41605 16.378 -4.58245 27.5696 -87.6824 -31.2084
lowerback -1.82573 0.187338 -1.21697
upperback 3.24846 0.309262 -1.17025
thorax 4.37097 0.119469 -0.508967
lowerneck -11.038 -0.631932 1.03989
upperneck 30.9722 -1.8609 -0.877213
head 11.9529 -1.17715 -0.832261
rclavicle 1.13556e-014 5.56597e-015
rhumerus -26.616 -11.1259 -87.0565
rradius 22.944
rwrist 9.54872
rhand -18.2747 -4.51195
rfingers 7.12502
rthumb 8.00525 -34.3403
lclavicle 1.13556e-014 5.56597e-015
lhumerus -28.032 -2.78797 87.6818
lradius 24.7857
lwrist 17.3641
lhand -18.4297 12.278
lfingers 7.12502
lthumb 7.85557 42.112
rfemur -14.101 6.61075 18.0298
rtibia 39.1133
rfoot -21.392 -11.6352
rtoes 2.53441
lfemur 7.49382 8.08236 -18.6399
ltibia 15.9765
lfoot -19.1989 9.59654
ltoes -1.34581
236
root 4.39376 16.3801 -4.61338 24.4297 -87.4335 -28.1197
lowerback -1.81853 0.189503 -1.15246
upperback 3.24809 0.309587 -1.16722
thorax 4.36674 0.12187 -0.541964
lowerneck -11.0317 -0.634053 1.06888
upperneck 30.8261 -1.85531 -0.87317
head 11.8929 -1.1664 -0.831812
rclavicle -1.1455e-014 1.59028e-015
rhumerus -26.6405 -11.0659 -87.1286
rradius 22.9561
rwrist 9.5358
rhand -18.4756 -4.45775
rfingers 7.12502
rthumb 7.81127 -34.2935
lclavicle -1.1455e-014 1.59028e-015
lhumerus -28.1321 -2.51095 87.593
lradius 24.7428
lwrist 17.2831
lhand -18.3624 12.3295
lfingers 7.12502
lthumb 7.92058 42.1611
rfemur -13.8637 6.44387 18.1669
rtibia 39.0493
rfoot -21.5423 -11.7221
rtoes 2.63659
lfemur 7.60798 7.88995 -18.4961
ltibia 15.9616
lfoot -19.1128 9.49485
ltoes -1.59781
237
root 4.37141 16.3823 -4.6454 22.424 -87.1751 -26.1662
lowerback -1.8111 0.193373 -1.06585
upperback 3.24935 0.311128 -1.15654
thorax 4.36414 0.1255 -0.579375
lowerneck -11.0287 -0.638771 1.09297
upperneck 30.6885 -1.85507 -0.863179
head 11.8373 -1.15811 -0.829233
rclavicle 5.14355e-015 1.27222e-014
rhumerus -26.6635 -11.012 -87.195
rradius 22.9692
rwrist 9.59423
rhand -18.6362 -4.43581
rfingers 7.12502
rthumb 7.65632 -34.2772
lclavicle 5.14355e-015 1.27222e-014
lhumerus -28.2297 -2.19169 87.4827
lradius 24.6818
lwrist 17.1963
lhand -18.3001 12.3867
lfingers 7.12502
lthumb 7.98075 42.216
rfemur -13.6176 6.28915 18.3394
rtibia 38.9674
rfoot -21.6918 -11.8093
rtoes 2.76173
lfemur 7.70492 7.71338 -18.3127
ltibia 15.9777
lfoot -19.0297 9.37667
ltoes -1.87238
238
root 4.34901 16.3847 -4.67852 20.9773 -86.9165 -24.7671
lowerback -1.80647 0.197174 -0.975348
upperback 3.24993 0.31241 -1.1429
thorax 4.36244 0.129096 -0.615931
lowerneck -11.0261 -0.644953 1.11035
upperneck 30.5574 -1.85901 -0.844023
head 11.7846 -1.15158 -0.822805
rclavicle -6.31141e-015 0
rhumerus -26.6844 -10.9592 -87.2554
rradius 22.9888
rwrist 9.72649
rhand -18.7221 -4.46376
rfingers 7.12502
rthumb 7.57341 -34.3082
lclavicle -6.31141e-015 0
lhumerus -28.3259 -1.82332 87.3472
lradius 24.6042
lwrist 17.1005
lhand -18.2493 12.4391
lfingers 7.12502
lthumb 8.02969 42.2665
rfemur -13.3708 6.14501 18.5272
rtibia 38.87
rfoot -21.8362 -11.8991
rtoes 2.89073
lfemur 7.78079 7.55161 -18.1103
ltibia 16.0201
lfoot -18.948 9.24197
ltoes -2.14948
239
root 4.32656 16.3872 -4.71249 19.8175 -86.658 -23.6509
lowerback -1.8028 0.200466 -0.884643
upperback 3.24829 0.313017 -1.12871
thorax 4.35898 0.132374 -0.652065
lowerneck -11.0255 -0.652808 1.12326
upperneck 30.4367 -1.86672 -0.820417
head 11.7367 -1.14698 -0.814706
rclavicle -3.40419e-015 -1.59028e-015
rhumerus -26.7121 -10.9373 -87.2994
rradius 23.0247
rwrist 9.95607
rhand -18.7201 -4.55122
rfingers 7.12502
rthumb 7.57534 -34.3956
lclavicle -3.40419e-015 -1.59028e-015
lhumerus -28.428 -1.42733 87.1931
lradius 24.5201
lwrist 17.0124
lhand -18.2121 12.4713
lfingers 7.12502
lthumb 8.06567 42.2974
rfemur -13.1248 6.00288 18.7207
rtibia 38.7613
rfoot -21.9728 -11.9878
rtoes 3.02059
lfemur 7.84346 7.39935 -17.8991
ltibia 16.0746
lfoot -18.862 9.09733
ltoes -2.4323
240
root 4.30405 16.39 -4.74741 18.8115 -86.4035 -22.6789
lowerback -1.80349 0.203518 -0.800992
upperback 3.24205 0.313694 -1.11514
thorax 4.35319 0.135494 -0.684865
lowerneck -11.0276 -0.66279 1.1307
upperneck 30.327 -1.87845 -0.792978
head 11.6939 -1.14462 -0.805041
rclavicle 7.03201e-015 9.54166e-015
rhumerus -26.7462 -10.9385 -87.3297
rradius 23.0752
rwrist 10.2594
rhand -18.629 -4.68664
rfingers 7.12502
rthumb 7.66329 -34.5278
lclavicle 7.03201e-015 9.54166e-015
lhumerus -28.5419 -1.01409 87.0223
lradius 24.4388
lwrist 16.9458
lhand -18.1813 12.4687
lfingers 7.12502
lthumb 8.09535 42.2936
rfemur -12.8896 5.86395 18.9132
rtibia 38.6456
rfoot -22.0997 -12.0748
rtoes 3.14686
lfemur 7.89367 7.26813 -17.683
ltibia 16.1272
lfoot -18.7582 8.94094
ltoes -2.74883
241
root 4.2815 16.3932 -4.78302 17.7237 -86.1496 -21.6186
lowerback -1.80613 0.20436 -0.733695
upperback 3.23327 0.312187 -1.10501
thorax 4.34581 0.137035 -0.712168
lowerneck -11.0308 -0.675953 1.13152
upperneck 30.2248 -1.8948 -0.762805
head 11.6544 -1.14495 -0.794009
rclavicle 2.09966e-014 5.56597e-015
rhumerus -26.7833 -10.9376 -87.356
rradius 23.1291
rwrist 10.5635
rhand -18.5137 -4.83378
rfingers 7.12502
rthumb 7.7745 -34.6708
lclavicle 2.09966e-014 5.56597e-015
lhumerus -28.6508 -0.555107 86.8279
lradius 24.3314
lwrist 16.863
lhand -18.146 12.4242
lfingers 7.12502
lthumb 8.12946 42.2478
rfemur -12.6606 5.71984 19.0908
rtibia 38.5245
rfoot -22.2196 -12.1583
rtoes 3.2735
lfemur 7.93825 7.13985 -17.4795
ltibia 16.1713
lfoot -18.6404 8.77987
ltoes -3.06895
